<svg width="580" height="400" xmlns="http://www.w3.org/2000/svg">
 <g>
  <path id="svg_1" d="m226.5,394c55,-16 35,-216 34,-216c-1,0 -57,-12 -57.5,-12c0.5,0 1.5,-10 1,-10c0.5,0 56.5,14 56,14c0.5,0 -25.5,-74 -24.5,-73c1,1 12,-4 11.5,-4c0.5,0 20.5,74 20,74c0.5,0 87.5,-35 87,-35c0.5,0 -17.5,35 -19.5,35c-2,0 -31,10 -31.5,10c0.5,0 6.5,218 36.5,215c-17,1 -110,0 -113,2z" stroke-width="1.5" stroke="#000" fill="#000000"/>
  <path id="svg_2" d="m182.067501,149.501168l16.881372,-24.132334l29.237248,-13.933833l33.762749,0l29.237248,13.933833l16.881368,24.132334l0,27.867669l-16.881368,24.132334l-29.237248,13.933829l-33.762749,0l-29.237248,-13.933829l-16.881372,-24.132334l0,-27.867669z" stroke-width="1.5" stroke="#000" fill="#000000"/>
  <ellipse ry="64" rx="73" id="svg_3" cy="125" cx="310.5" stroke-opacity="null" stroke-width="1.5" stroke="#000" fill="#000000"/>
  <path stroke="#000" id="svg_7" d="m358.233277,78.314127c-6.537866,0 -12.149589,11.697036 -14.89643,28.583364c-1.097074,-2.113032 -2.307144,-3.392469 -3.598575,-3.392469c-3.905328,0 -7.155118,10.838672 -8.159559,25.551806c-1.714454,-2.337888 -3.707888,-3.753372 -5.837224,-3.753372c-6.388011,0 -11.569837,12.058034 -11.569837,26.923228c0,13.418362 4.249785,24.449491 9.770551,26.490137c-0.247434,1.448356 -0.439363,2.882634 -0.439363,4.402997c0,14.232625 11.302465,25.840504 25.231871,25.840504c13.929404,0 25.231885,-11.607887 25.231871,-25.840504c0,-0.957622 -0.172284,-1.81222 -0.271984,-2.742852c0.610111,0.523449 1.214206,1.082708 1.882977,1.082708c3.726327,0.000039 6.757789,-8.735124 6.757789,-19.488665c0,-10.753549 -3.031462,-19.488657 -6.757789,-19.488657c-0.456653,0 -0.84495,0.544177 -1.27624,0.793986c0.377121,-4.299807 0.627657,-8.687193 0.627657,-13.353343c0,-28.465227 -7.468596,-51.608852 -16.695712,-51.608852l-0.000005,-0.000016z" stroke-opacity="null" stroke-width="1.5" fill="#000000"/>
  <path stroke="#000000" id="svg_8" d="m262.80531,13.9142c-21.49114,0 -39.93789,10.09193 -48.96725,24.66105c-3.60627,-1.82307 -7.58399,-2.92694 -11.82916,-2.92694c-12.83751,0 -23.52016,9.35135 -26.82193,22.0455c-5.63572,-2.01707 -12.1885,-3.23832 -19.18801,-3.23832c-20.99854,0 -38.03213,10.40339 -38.03213,23.22873c0,11.57705 13.9698,21.09445 32.11755,22.85507c-0.81336,1.24961 -1.44426,2.48707 -1.44426,3.7988c0,12.27958 37.15323,22.29459 82.9417,22.29459c45.78845,0 82.94174,-10.01502 82.9417,-22.29459c0,-0.82621 -0.56633,-1.56354 -0.89406,-2.36647c2.00554,0.45162 3.99131,0.93414 6.18968,0.93414c12.24911,0.00003 22.21407,-7.53646 22.21407,-16.81436c0,-9.27791 -9.96496,-16.81436 -22.21407,-16.81436c-1.5011,0 -2.7775,0.4695 -4.19523,0.68503c1.23966,-3.70977 2.06322,-7.4951 2.06322,-11.52095c0,-24.55913 -24.55062,-44.52691 -54.88181,-44.52691l-0.00001,-0.00001z" stroke-width="1.5" fill="#000000"/>
 </g>
</svg>
